<?xml version="1.0"?>
<svg xmlns="http://www.w3.org/2000/svg" xmlns:xlink="http://www.w3.org/1999/xlink" version="1.1" id="Capa_1" x="0px" y="0px" viewBox="0 0 496 496" style="enable-background:new 0 0 496 496;" xml:space="preserve" width="512px" height="512px" class=""><g><g>
	<path style="fill:#6BC182" d="M381.44,176c0-12.064-4.624-23.592-12.856-32.448c4.216-11.336,4.08-23.76-0.536-34.904   c-4.624-11.152-13.304-20.032-24.296-25.056c-0.44-12.088-5.32-23.504-13.848-32.048c-8.536-8.528-19.96-13.416-32.048-13.848   c-5.024-10.992-13.904-19.68-25.056-24.296c-11.144-4.616-23.56-4.768-34.904-0.536C229.04,4.624,217.504,0,205.44,0   s-23.6,4.624-32.448,12.856c-11.344-4.224-23.768-4.08-34.904,0.536C126.936,18,118.056,26.696,113.032,37.688   c-12.088,0.44-23.504,5.32-32.048,13.848c-8.528,8.536-13.416,19.96-13.848,32.04C56.144,88.6,47.456,97.488,42.84,108.64   c-4.616,11.144-4.76,23.568-0.536,34.904C34.064,152.4,29.44,163.936,29.44,176s4.624,23.6,12.856,32.448   c-4.216,11.336-4.08,23.76,0.536,34.904c4.616,11.152,13.304,20.04,24.296,25.064c0.44,12.08,5.32,23.504,13.856,32.048   c2.488,2.48,5.216,4.672,8.12,6.52h7.24C87.84,294.072,85.44,280,85.44,280s15.112,14.912,37.896,15.832   c-13.72-17.624-21.896-39.768-21.896-63.832v-64v-1.128c2.568,0.664,5.224,1.128,8,1.128c13.968,0,25.72-9.008,30.088-21.48   c5.112,3.456,11.272,5.48,17.912,5.48c11.696,0,21.816-6.336,27.4-15.704c5.576,4.736,12.712,7.704,20.6,7.704   s15.024-2.968,20.6-7.704c5.584,9.368,15.704,15.704,27.4,15.704c6.64,0,12.8-2.024,17.912-5.48   c4.368,12.472,16.12,21.48,30.088,21.48c2.776,0,5.432-0.464,8-1.128V168v64c0,24.088-8.256,46.208-22,63.84   c22.848-0.872,38-15.84,38-15.84s-2.4,14.072-10.912,26.984h7.24c2.896-1.848,5.632-4.048,8.128-6.528   c8.528-8.536,13.416-19.96,13.848-32.048c10.992-5.024,19.672-13.904,24.296-25.056c4.616-11.144,4.76-23.568,0.536-34.904   C376.816,199.6,381.44,188.064,381.44,176z" data-original="#FFA64D" class="active-path" data-old_color="#5F886A"/>
	<path style="fill:#6BC182" d="M309.44,400c0,48.6,39.4,88,88,88s88-39.4,88-88c0-21.296-7.584-40.8-20.184-56H329.624   C317.024,359.2,309.44,378.704,309.44,400z" data-original="#FFA64D" class="active-path" data-old_color="#5F886A"/>
</g><g>
	<path style="fill:#333333" d="M445.44,316.936V264c13.232,0,24-10.768,24-24s-10.768-24-24-24h-96   c0-19.312-13.768-35.472-32-39.192V176v-19.464l-10,2.584c-2.32,0.6-4.224,0.88-6,0.88c-10.104,0-19.16-6.488-22.528-16.128   l-3.44-9.808l-8.6,5.824c-3.976,2.688-8.616,4.112-13.432,4.112c-8.448,0-16.12-4.416-20.528-11.8l-4.832-8.128l-7.208,6.12   c-3.128,2.648-8.328,5.808-15.432,5.808s-12.304-3.16-15.424-5.808l-7.208-6.12l-4.832,8.128c-4.416,7.384-12.088,11.8-20.536,11.8   c-4.816,0-9.456-1.424-13.432-4.112l-8.6-5.824l-3.44,9.808C128.6,153.512,119.544,160,109.44,160c-1.776,0-3.68-0.28-6-0.872   l-10-2.592V176v0.808c-18.232,3.72-32,19.88-32,39.192c0,20.184,15.08,36.752,34.528,39.448c2.104,9.912,5.504,19.456,10.224,28.44   c-9.312-4-15.024-9.472-15.096-9.536c-2.472-2.48-6.232-3.048-9.32-1.464c-3.088,1.592-4.8,5-4.224,8.432   C80.696,300.224,96.44,336,133.44,336c5.464,0,10.816-0.552,16-1.544v2.68l-41.312,6.36c-36.952,5.688-68.048,32.424-79.192,68.12   L2.56,496h378.88v-1.448c5.216,0.88,10.536,1.448,16,1.448c52.936,0,96-43.064,96-96   C493.44,365.488,475.176,334.096,445.44,316.936z M304.752,424.584l-3.248,0.408L308.376,480H213.44v-20.248l21.128-17.6   l-10.248-12.296l-10.88,9.064v-35.96l43.176-50.368l23.656,3.64L265.44,376h-20v36.248l-11.144,9.28l10.248,12.296l16.896-14.072   V392h12l24.76-33.024l2.112,0.328c3.152,0.48,6.232,1.256,9.304,2.096c-5.248,11.944-8.176,25.008-8.176,38.6   C301.44,408.512,302.664,416.72,304.752,424.584z M145.44,376l-14.832-19.776l23.656-3.64l43.176,50.376v35.96l-32-26.672V376   H145.44z M205.44,300.064c6.224,8.608,15.712,17.176,27.408,23.784C223.976,326.48,214.752,328,205.44,328   c-9.456,0-18.608-1.496-27.44-4.136C189.704,317.256,199.208,308.688,205.44,300.064z M181.44,248   c-21.336,0-31.168,14.184-39.072,25.592c-5.712,8.248-9.48,13.248-14.96,14.208c-10.168-14.168-16.232-30.472-17.64-47.8h79.672   v-24h32v24h79.648c-1.448,17.216-7.552,33.752-17.592,47.8c-5.496-0.944-9.264-5.952-14.984-14.208   C260.608,262.184,250.776,248,229.44,248c-10.432,0-18.536,3.112-24,8.848C199.976,251.112,191.872,248,181.44,248z M109.44,192h64   v32h-64V192z M301.44,224h-64v-32h64V224z M229.44,264c12.96,0,18.96,8.672,25.92,18.704c6.912,9.984,14.752,21.296,30.08,21.296   c9.496,0,17.864-2.168,24.76-5.032C304.36,309.432,294.296,320,277.44,320c-37.448,0-64-30.328-64-40   C213.44,268.488,217.928,264,229.44,264z M205.44,344c13.688,0,27.296-2.552,40-7.4v4.44l-40,46.672l-40-46.672v-4.44   C178.152,341.44,191.76,344,205.44,344z M317.6,347.016c-4.848-1.544-9.808-2.744-14.848-3.52l-41.312-6.36v-2.68   c5.184,0.992,10.536,1.544,16,1.544c37,0,52.744-35.776,55.888-54.688c0.568-3.432-1.144-6.832-4.224-8.432   c-3.096-1.576-6.848-1.008-9.32,1.464c-0.088,0.088-5.816,5.64-15.264,9.64c4.696-8.96,8.152-18.504,10.288-28.392   c4.76-0.648,9.328-2.144,13.528-4.4c4.04,7.576,11.936,12.808,21.104,12.808v52.936C336.36,324.488,325.664,334.904,317.6,347.016z    M333.44,216c0,2.032-0.256,4.056-0.76,6.008l0.792,0.208c-3.072,2.76-5.384,6.272-6.712,10.28c-2.616,2.744-5.816,4.752-9.32,6   V232v-38.528C326.728,196.784,333.44,205.584,333.44,216z M143.12,157.36c4.536,1.744,9.376,2.64,14.32,2.64   c11.288,0,21.736-4.68,29.216-12.816c11.576,6.264,25.984,6.264,37.56,0C231.704,155.32,242.152,160,253.44,160   c4.944,0,9.784-0.896,14.32-2.64c7.216,11.424,19.856,18.64,33.68,18.64h-80v24h-32v-24h-80   C123.264,176,135.904,168.784,143.12,157.36z M77.44,216c0-10.416,6.712-19.216,16-22.528V232v6.528   C84.152,235.216,77.44,226.416,77.44,216z M100.68,298.968c6.896,2.864,15.264,5.032,24.76,5.032   c15.328,0,23.168-11.312,30.08-21.296C162.48,272.672,168.48,264,181.44,264c11.512,0,16,4.488,16,16c0,9.672-26.552,40-64,40   C116.584,320,106.512,309.432,100.68,298.968z M44.2,416.376c9.352-29.896,35.4-52.304,66.368-57.072l2.112-0.328L137.44,392h12   v27.752l48,40V480h-94.936l6.872-55.008l-15.872-1.984L86.376,480H24.32L44.2,416.376z M324.504,480l-2.624-20.984   c6.368,8.144,13.976,15.256,22.608,20.984H324.504z M397.44,480c-44.112,0-80-35.888-80-80c0-18.064,6.112-35.04,16.728-48.76   C337.6,369.84,353.864,384,373.44,384c22.056,0,40-17.944,40-40h-16c0,13.232-10.768,24-24,24s-24-10.768-24-24h-8.872   c5.92-5.984,12.736-11.2,20.52-15.184l4.352-2.24V248h-16c-4.416,0-8-3.584-8-8s3.584-8,8-8h96c4.416,0,8,3.584,8,8s-3.584,8-8,8   h-16v78.576l4.352,2.232c26.92,13.776,43.648,41.056,43.648,71.192C477.44,444.112,441.552,480,397.44,480z" data-original="#333333" class=""/>
	<path style="fill:#333333" d="M421.44,400c-13.232,0-24,10.768-24,24s10.768,24,24,24s24-10.768,24-24S434.672,400,421.44,400z    M421.44,432c-4.416,0-8-3.584-8-8s3.584-8,8-8s8,3.584,8,8S425.856,432,421.44,432z" data-original="#333333" class=""/>
</g></g> </svg>
