<?xml version="1.0" standalone="no"?>
<!DOCTYPE svg PUBLIC "-//W3C//DTD SVG 20010904//EN"
 "http://www.w3.org/TR/2001/REC-SVG-20010904/DTD/svg10.dtd">
<svg version="1.0" xmlns="http://www.w3.org/2000/svg"
 width="700.000000pt" height="700.000000pt" viewBox="0 0 700.000000 700.000000"
 preserveAspectRatio="xMidYMid meet">
<metadata>
Created by potrace 1.11, written by Peter Selinger 2001-2013
</metadata>
<g transform="translate(0.000000,700.000000) scale(0.100000,-0.100000)"
fill="#000000" stroke="none">
<path d="M2765 6986 c-108 -25 -235 -87 -301 -147 -20 -19 -22 -19 -99 1 -110
28 -271 23 -370 -13 -151 -53 -282 -158 -360 -287 -21 -36 -39 -66 -40 -67 -1
-1 -19 -5 -41 -8 -300 -43 -507 -218 -583 -494 -23 -83 -21 -72 -21 -115 0
-32 -4 -37 -62 -68 -95 -50 -204 -165 -256 -268 -23 -47 -49 -114 -58 -150
-23 -89 -21 -236 3 -326 l19 -72 -33 -38 c-49 -58 -101 -164 -124 -251 -55
-212 1 -449 143 -607 15 -16 15 -22 2 -58 -71 -203 -8 -482 148 -649 43 -47
132 -115 180 -140 31 -16 38 -25 38 -49 0 -44 28 -155 54 -215 32 -72 94 -160
151 -215 26 -25 70 -81 99 -125 122 -185 261 -292 441 -341 70 -19 256 -26
365 -14 35 4 45 2 48 -11 2 -13 -12 -19 -75 -28 -320 -50 -517 -81 -548 -86
-75 -15 -122 -27 -198 -54 -266 -92 -501 -265 -672 -495 -123 -167 -163 -264
-332 -806 -25 -80 -49 -156 -54 -170 -4 -14 -28 -90 -53 -170 -25 -80 -65
-211 -90 -292 -25 -80 -46 -149 -46 -152 0 -3 1201 -6 2670 -6 1676 0 2670 4
2670 9 0 6 21 7 53 3 104 -13 339 -6 427 12 286 60 503 177 706 380 156 157
255 315 323 514 169 496 40 1039 -334 1405 -48 46 -186 155 -235 184 l-35 22
1 363 c1 200 2 368 3 373 1 6 16 12 34 13 102 7 208 80 259 177 27 50 48 138
42 173 -12 81 -17 99 -35 134 -26 51 -75 105 -122 135 -83 52 -90 53 -683 53
l-551 0 -15 55 c-15 52 -14 56 5 78 58 65 129 206 143 286 4 20 8 45 10 56 8
43 5 153 -6 214 -17 93 -55 183 -115 265 -45 63 -50 75 -43 101 57 196 36 379
-62 545 -58 99 -145 185 -245 241 -46 26 -55 36 -56 60 -1 16 -2 32 -3 37 -1
4 -5 25 -9 47 -13 66 -55 167 -95 227 -121 184 -293 283 -534 307 -4 1 -17 21
-29 45 -12 25 -44 71 -71 104 -159 195 -429 284 -673 222 l-77 -20 -37 29
c-119 94 -240 139 -393 146 -67 3 -124 0 -163 -9z m-69 -2090 c135 -52 306
-49 431 10 32 15 33 14 88 -31 78 -63 164 -105 255 -123 60 -12 212 -4 260 13
l45 16 25 -33 c45 -59 123 -127 182 -158 32 -17 60 -31 63 -31 2 0 20 -6 39
-14 20 -8 46 -15 60 -15 14 0 27 -3 29 -7 3 -5 -231 -8 -519 -8 -353 1 -525
-3 -527 -10 -1 -5 -2 -81 -2 -167 1 -153 1 -158 -19 -159 -135 -4 -411 -2
-419 3 -8 5 -13 58 -14 165 -1 87 -2 160 -2 163 -1 3 -231 6 -512 5 -281 0
-513 3 -515 6 -2 4 14 9 35 13 94 15 242 114 316 210 l26 35 52 -16 c78 -24
235 -21 316 6 77 25 152 68 205 116 22 19 40 35 41 35 1 0 28 -11 61 -24z
m-247 -831 l1 -225 -82 0 c-404 -3 -812 0 -817 5 -3 4 -6 105 -6 226 l0 219
451 0 452 0 1 -225z m1806 2 c0 -121 -3 -221 -6 -223 -4 -2 -206 -4 -450 -5
l-444 -1 -3 226 -2 226 452 -2 452 -3 1 -218z m-1130 -286 l0 -168 562 1 563
1 -6 -45 c-10 -82 -15 -104 -39 -196 -13 -49 -41 -130 -62 -180 -41 -93 -132
-254 -144 -254 -46 0 -119 70 -214 205 -177 251 -315 343 -523 350 -140 5
-235 -22 -330 -92 l-33 -25 -32 25 c-90 68 -192 97 -329 92 -99 -4 -156 -18
-234 -58 -96 -50 -163 -117 -287 -287 -42 -58 -91 -121 -109 -141 -30 -33 -85
-69 -105 -69 -16 0 -129 198 -161 280 -41 109 -78 255 -88 353 -4 35 -2 37 24
38 15 0 268 1 561 2 l535 2 0 168 0 167 226 0 226 0 -1 -169z m3205 -69 c59
-20 83 -86 54 -147 -25 -53 -63 -65 -203 -65 l-121 0 0 -554 0 -555 79 -42
c96 -51 241 -158 263 -195 6 -9 -1577 -12 -1586 -3 -9 9 165 142 250 190 l91
52 0 546 c0 531 0 547 20 591 23 50 51 132 57 170 3 14 5 25 5 25 1 1 238 1
529 0 391 0 536 -3 562 -13z m-3652 -459 c52 -18 89 -65 101 -126 19 -103 -7
-167 -118 -292 -153 -172 -423 -315 -645 -341 -100 -11 -127 -12 -195 -3 -69
8 -174 44 -206 71 -88 70 -185 182 -185 211 0 3 17 -1 38 -10 72 -30 213 -53
307 -49 166 6 252 66 414 289 143 196 192 238 302 261 72 15 124 12 187 -11z
m710 -17 c64 -33 95 -65 228 -242 124 -167 158 -200 253 -246 57 -29 74 -32
162 -34 98 -2 202 15 297 49 23 8 42 11 42 7 0 -4 -19 -34 -43 -66 -85 -116
-189 -184 -316 -208 -111 -21 -267 -7 -396 36 -111 37 -195 77 -290 142 -139
93 -274 243 -303 336 -21 67 1 170 46 212 63 60 216 67 320 14z m1542 -348 l0
-363 -62 -40 c-123 -79 -242 -191 -338 -318 -48 -63 -52 -66 -77 -56 -42 16
-140 35 -328 64 -93 14 -183 28 -200 31 -51 9 -220 34 -227 34 -5 0 -8 9 -8
20 0 17 4 19 33 12 17 -4 100 -7 182 -6 135 0 158 3 230 27 44 14 109 43 144
64 83 49 204 170 261 262 25 40 67 93 93 119 119 114 195 262 212 410 6 54 10
63 38 81 18 11 35 20 40 20 4 1 7 -162 7 -361z m-2020 -136 c0 -12 137 -152
191 -195 25 -20 77 -57 114 -82 42 -27 63 -46 54 -49 -160 -56 -442 -68 -629
-27 -58 13 -109 25 -113 28 -5 3 22 25 60 50 109 72 219 169 277 246 27 35 46
47 46 29z m-364 -567 c320 -59 600 -45 856 44 63 22 76 14 58 -33 -7 -21 -408
-499 -444 -531 -6 -5 -21 -22 -32 -37 -12 -15 -36 -44 -54 -65 -28 -32 -34
-35 -44 -21 -7 9 -33 40 -58 70 -74 86 -189 220 -243 283 -27 32 -54 63 -60
69 -5 6 -32 38 -60 71 -27 33 -63 75 -79 92 -51 57 -54 64 -48 109 1 8 32 2
91 -17 48 -15 101 -31 117 -34z m-318 -219 c24 -29 53 -63 65 -77 12 -13 47
-53 77 -89 30 -36 67 -78 81 -95 14 -16 95 -111 180 -209 l154 -180 1 -252 c0
-177 -3 -251 -10 -247 -10 6 -175 141 -186 153 -3 3 -57 48 -120 100 -63 52
-120 99 -125 105 -7 6 -11 99 -10 263 0 161 -4 252 -10 253 -5 1 -69 2 -142 2
l-132 2 -100 134 c-56 74 -101 137 -101 141 0 4 6 7 13 7 20 0 144 19 212 33
91 18 106 13 153 -44z m1531 37 c14 -3 62 -10 106 -17 44 -6 79 -16 79 -21 -1
-6 -46 -69 -100 -141 l-98 -131 -115 0 c-64 -1 -127 -1 -142 -2 l-25 -1 1
-237 c0 -131 -1 -247 -3 -258 -2 -11 -37 -47 -78 -80 -40 -33 -73 -63 -71 -67
5 -16 133 -167 139 -165 4 1 59 45 122 97 l116 95 0 198 0 199 28 -2 c15 -1
54 -1 87 -1 l60 2 65 91 c36 50 70 96 75 102 6 6 22 27 35 46 13 19 27 37 30
40 3 3 34 44 70 93 68 92 73 95 140 78 19 -5 47 -12 62 -15 l28 -6 -24 -64
c-94 -249 -114 -505 -61 -760 18 -84 17 -79 6 -72 -11 7 -42 -4 -37 -13 2 -3
7 -35 11 -71 4 -36 9 -73 11 -84 2 -10 6 -44 9 -75 4 -31 8 -66 10 -77 2 -12
6 -48 10 -80 4 -33 9 -70 11 -84 2 -14 6 -54 10 -90 3 -36 9 -83 13 -105 4
-22 7 -53 7 -70 l-1 -29 -655 -1 c-360 -1 -661 1 -668 3 -9 3 -12 39 -11 143
l1 139 86 73 c48 39 98 82 112 95 14 12 40 33 57 45 18 12 34 27 37 32 3 10
-31 55 -109 143 l-31 34 -73 -61 c-40 -34 -75 -61 -77 -61 -3 0 -4 113 -3 251
l2 251 85 102 c48 55 89 103 92 106 3 3 43 50 90 105 47 55 97 113 111 130 15
16 68 80 120 140 51 61 98 114 104 118 9 7 81 2 144 -10z m-1994 -303 l170
-229 65 -2 c36 -1 75 0 88 1 l22 1 0 -199 0 -200 34 -26 c19 -14 40 -31 48
-38 7 -7 38 -33 68 -58 30 -25 57 -47 60 -50 3 -3 17 -15 32 -26 15 -12 51
-41 80 -66 29 -25 96 -81 148 -124 52 -43 100 -83 107 -89 6 -5 31 -27 55 -47
l45 -37 -2 -138 c-1 -76 -3 -140 -4 -143 0 -3 -300 -5 -666 -5 -545 0 -665 2
-665 13 0 20 41 354 55 452 7 49 18 135 20 155 1 11 5 52 10 91 7 69 7 70 -16
71 -13 0 -46 3 -74 7 -120 16 -125 16 -126 3 0 -6 -2 -21 -4 -32 -3 -16 -36
-279 -61 -485 -3 -25 -7 -55 -9 -68 -2 -13 -7 -52 -11 -88 -3 -36 -9 -78 -13
-92 l-7 -27 -420 0 c-230 0 -426 1 -435 3 -15 3 -15 8 -3 40 13 36 40 123 185
592 100 321 103 330 150 426 125 257 355 469 622 575 65 26 223 68 257 68 21
0 52 -36 195 -229z m2803 -1207 c17 -30 159 -167 221 -213 33 -25 60 -47 61
-50 0 -3 -61 -5 -135 -5 -83 0 -135 4 -136 10 0 6 -2 17 -3 25 -3 15 -11 79
-21 175 -3 28 -8 56 -10 63 -6 18 13 15 23 -5z"/>
</g>
</svg>
